<svg xmlns="http://www.w3.org/2000/svg" xmlns:xlink="http://www.w3.org/1999/xlink" width="209" zoomAndPan="magnify" viewBox="0 0 156.75 36.000001" height="48" preserveAspectRatio="xMidYMid meet" version="1.0"><defs><filter x="0%" y="0%" width="100%" height="100%" id="7e32381b67"><feColorMatrix values="0 0 0 0 1 0 0 0 0 1 0 0 0 0 1 0 0 0 1 0" color-interpolation-filters="sRGB"/></filter><g/><clipPath id="a5e3c328a9"><path d="M 1.996094 0 L 154.511719 0 L 154.511719 35.027344 L 1.996094 35.027344 Z M 1.996094 0 " clip-rule="nonzero"/></clipPath><mask id="1d9e383735"><g filter="url(#7e32381b67)"><rect x="-15.675" width="188.1" fill="#000000" y="-3.6" height="43.200001" fill-opacity="0.6471"/></g></mask><clipPath id="f5f1e38604"><path d="M 6 4 L 49.789062 4 L 49.789062 13 L 6 13 Z M 6 4 " clip-rule="nonzero"/></clipPath><clipPath id="15deee2657"><path d="M 9 0.335938 L 37 0.335938 L 37 7 L 9 7 Z M 9 0.335938 " clip-rule="nonzero"/></clipPath><clipPath id="0fb8395879"><path d="M 0.0859375 8 L 23 8 L 23 13.21875 L 0.0859375 13.21875 Z M 0.0859375 8 " clip-rule="nonzero"/></clipPath><clipPath id="9d5047f7d2"><rect x="0" width="50" y="0" height="14"/></clipPath></defs><g clip-path="url(#a5e3c328a9)"><path fill="#ffffff" d="M 1.996094 0 L 154.753906 0 L 154.753906 42.390625 L 1.996094 42.390625 Z M 1.996094 0 " fill-opacity="1" fill-rule="nonzero"/><path fill="#ffffff" d="M 1.996094 0 L 154.753906 0 L 154.753906 35.082031 L 1.996094 35.082031 Z M 1.996094 0 " fill-opacity="1" fill-rule="nonzero"/><path fill="#ffffff" d="M 1.996094 0 L 154.753906 0 L 154.753906 35.082031 L 1.996094 35.082031 Z M 1.996094 0 " fill-opacity="1" fill-rule="nonzero"/></g><g mask="url(#1d9e383735)"><g transform="matrix(1, 0, 0, 1, 68, 2)"><g clip-path="url(#9d5047f7d2)"><g clip-path="url(#f5f1e38604)"><path fill="#ff1616" d="M 48.125 6.203125 C 46.53125 5.65625 44.832031 5.699219 43.078125 6.328125 C 42.589844 6.503906 42.097656 6.6875 41.578125 6.882812 L 41.554688 6.894531 C 38.566406 8.015625 35.179688 9.285156 31.34375 9.285156 C 30.859375 9.285156 30.367188 9.265625 29.886719 9.222656 C 27.578125 9.027344 25.425781 8.042969 23.34375 7.085938 C 21.101562 6.058594 18.785156 4.996094 16.191406 4.847656 C 13.664062 4.726562 11.148438 4.855469 8.644531 5.226562 L 6.050781 5.621094 L 8.671875 5.769531 C 13.59375 6.042969 17.816406 8.183594 20.609375 9.601562 C 24.246094 11.445312 27.117188 12.308594 29.644531 12.316406 C 29.675781 12.316406 29.710938 12.316406 29.742188 12.316406 C 34.820312 12.316406 37.433594 10.789062 39.964844 9.308594 C 42.226562 7.984375 44.367188 6.738281 48.003906 6.738281 L 49.664062 6.738281 Z M 48.125 6.203125 " fill-opacity="1" fill-rule="nonzero"/></g><g clip-path="url(#15deee2657)"><path fill="#ff1616" d="M 15.652344 2.394531 C 19.824219 2.394531 22.050781 3.414062 23.679688 4.15625 L 23.875 4.242188 C 24.171875 4.378906 24.496094 4.546875 24.871094 4.742188 C 26.554688 5.625 28.933594 6.867188 32.496094 6.867188 C 33.40625 6.867188 34.308594 6.789062 35.207031 6.640625 L 36.953125 6.359375 L 35.203125 6.101562 C 31.359375 5.539062 29.578125 4.335938 27.851562 3.167969 C 26.539062 2.28125 25.300781 1.441406 23.179688 0.914062 C 19.785156 0.0664062 16.140625 0.445312 11.714844 2.109375 L 9.617188 2.898438 L 11.84375 2.636719 C 13.109375 2.480469 14.378906 2.402344 15.652344 2.394531 Z M 23.792969 3.90625 Z M 23.792969 3.90625 " fill-opacity="1" fill-rule="nonzero"/></g><g clip-path="url(#0fb8395879)"><path fill="#ff1616" d="M 18.566406 11.460938 C 16.28125 10.320312 13.917969 9.140625 10.433594 8.472656 C 7.6875 7.949219 4.75 8.316406 2.769531 8.714844 L 0.203125 9.234375 L 2.820312 9.257812 C 6.277344 9.285156 8.121094 10.140625 9.75 10.898438 C 10.15625 11.085938 10.542969 11.265625 10.9375 11.425781 C 14.550781 12.871094 17.898438 13.132812 20.976562 13.195312 L 22.335938 13.222656 L 21.09375 12.671875 C 20.210938 12.28125 19.375 11.863281 18.566406 11.460938 Z M 18.566406 11.460938 " fill-opacity="1" fill-rule="nonzero"/></g></g></g></g><g fill="#000000" fill-opacity="1"><g transform="translate(31.259206, 31.584488)"><g><path d="M 8.828125 -7.6875 C 9.640625 -7.5 10.242188 -7.101562 10.640625 -6.5 C 11.046875 -5.894531 11.25 -5.125 11.25 -4.1875 C 11.25 -2.851562 10.796875 -1.820312 9.890625 -1.09375 C 8.984375 -0.363281 7.582031 0 5.6875 0 L 1.75 0 L 1.75 -14.53125 L 5.625 -14.53125 C 8.894531 -14.53125 10.53125 -13.238281 10.53125 -10.65625 C 10.53125 -10.050781 10.382812 -9.472656 10.09375 -8.921875 C 9.8125 -8.367188 9.390625 -7.957031 8.828125 -7.6875 Z M 7.9375 -10.5625 C 7.9375 -11.257812 7.722656 -11.75 7.296875 -12.03125 C 6.867188 -12.320312 6.3125 -12.46875 5.625 -12.46875 L 4.375 -12.46875 L 4.375 -8.4375 L 6.0625 -8.4375 C 6.507812 -8.4375 6.867188 -8.546875 7.140625 -8.765625 C 7.421875 -8.984375 7.625 -9.253906 7.75 -9.578125 C 7.875 -9.898438 7.9375 -10.226562 7.9375 -10.5625 Z M 5.984375 -2.109375 C 6.734375 -2.109375 7.335938 -2.265625 7.796875 -2.578125 C 8.265625 -2.890625 8.5 -3.472656 8.5 -4.328125 C 8.5 -5.191406 8.257812 -5.769531 7.78125 -6.0625 C 7.300781 -6.351562 6.660156 -6.5 5.859375 -6.5 L 4.375 -6.5 L 4.375 -2.109375 Z M 5.984375 -2.109375 "/></g></g></g><g fill="#000000" fill-opacity="1"><g transform="translate(43.515129, 31.584488)"><g><path d="M 8.734375 -2.296875 L 8.734375 0 L 1.75 0 L 1.75 -14.53125 L 4.390625 -14.53125 L 4.390625 -2.296875 Z M 8.734375 -2.296875 "/></g></g></g><g fill="#000000" fill-opacity="1"><g transform="translate(53.207322, 31.584488)"><g><path d="M 6.875 0.25 C 5.582031 0.25 4.476562 -0.0546875 3.5625 -0.671875 C 2.65625 -1.285156 1.96875 -2.15625 1.5 -3.28125 C 1.039062 -4.414062 0.8125 -5.75 0.8125 -7.28125 C 0.8125 -8.789062 1.039062 -10.109375 1.5 -11.234375 C 1.96875 -12.367188 2.648438 -13.242188 3.546875 -13.859375 C 4.441406 -14.472656 5.53125 -14.78125 6.8125 -14.78125 C 8.144531 -14.78125 9.265625 -14.46875 10.171875 -13.84375 C 11.078125 -13.21875 11.757812 -12.34375 12.21875 -11.21875 C 12.675781 -10.09375 12.90625 -8.78125 12.90625 -7.28125 C 12.90625 -5.75 12.671875 -4.414062 12.203125 -3.28125 C 11.734375 -2.15625 11.046875 -1.285156 10.140625 -0.671875 C 9.234375 -0.0546875 8.144531 0.25 6.875 0.25 Z M 6.875 -1.984375 C 7.5 -1.984375 8.054688 -2.179688 8.546875 -2.578125 C 9.035156 -2.972656 9.421875 -3.570312 9.703125 -4.375 C 9.984375 -5.1875 10.125 -6.175781 10.125 -7.34375 C 10.125 -9.050781 9.832031 -10.351562 9.25 -11.25 C 8.675781 -12.15625 7.863281 -12.609375 6.8125 -12.609375 C 5.789062 -12.609375 5 -12.15625 4.4375 -11.25 C 3.882812 -10.351562 3.609375 -9.039062 3.609375 -7.3125 C 3.609375 -6.132812 3.738281 -5.144531 4 -4.34375 C 4.269531 -3.550781 4.648438 -2.957031 5.140625 -2.5625 C 5.628906 -2.175781 6.207031 -1.984375 6.875 -1.984375 Z M 6.875 -1.984375 "/></g></g></g><g fill="#000000" fill-opacity="1"><g transform="translate(67.339146, 31.584488)"><g><path d="M 12.296875 -7.796875 C 12.378906 -6.929688 12.421875 -6.257812 12.421875 -5.78125 C 12.421875 -3.925781 12.015625 -2.4375 11.203125 -1.3125 C 10.398438 -0.1875 8.953125 0.375 6.859375 0.375 C 5.691406 0.375 4.644531 0.0664062 3.71875 -0.546875 C 2.800781 -1.171875 2.078125 -2.066406 1.546875 -3.234375 C 1.023438 -4.398438 0.765625 -5.789062 0.765625 -7.40625 C 0.765625 -8.820312 1.039062 -10.085938 1.59375 -11.203125 C 2.144531 -12.328125 2.90625 -13.203125 3.875 -13.828125 C 4.851562 -14.460938 5.96875 -14.78125 7.21875 -14.78125 C 8.0625 -14.78125 8.757812 -14.710938 9.3125 -14.578125 C 9.875 -14.441406 10.304688 -14.285156 10.609375 -14.109375 C 10.921875 -13.929688 11.195312 -13.722656 11.4375 -13.484375 L 10.296875 -11.171875 C 9.722656 -11.929688 8.707031 -12.3125 7.25 -12.3125 C 6.5625 -12.3125 5.929688 -12.109375 5.359375 -11.703125 C 4.796875 -11.296875 4.351562 -10.722656 4.03125 -9.984375 C 3.71875 -9.242188 3.5625 -8.40625 3.5625 -7.46875 C 3.5625 -6.320312 3.695312 -5.332031 3.96875 -4.5 C 4.25 -3.675781 4.640625 -3.046875 5.140625 -2.609375 C 5.648438 -2.171875 6.238281 -1.953125 6.90625 -1.953125 C 7.945312 -1.953125 8.695312 -2.195312 9.15625 -2.6875 C 9.625 -3.1875 9.859375 -3.9375 9.859375 -4.9375 C 9.859375 -5.050781 9.851562 -5.238281 9.84375 -5.5 L 6.859375 -5.5 L 6.859375 -7.796875 Z M 12.296875 -7.796875 "/></g></g></g><g fill="#ff1616" fill-opacity="1"><g transform="translate(81.587521, 31.584488)"><g><path d="M 10.65625 0 L 8.3125 0 L 4.109375 -6.28125 L 3.640625 -5.59375 L 3.640625 0 L 1.640625 0 L 1.640625 -14.609375 L 3.640625 -14.609375 L 3.640625 -8.90625 L 7.484375 -14.609375 L 9.75 -14.609375 L 5.234375 -8 Z M 10.65625 0 "/></g></g></g><g fill="#ff1616" fill-opacity="1"><g transform="translate(92.676217, 31.584488)"><g><path d="M 4.546875 0 L 2.625 0 L 2.625 -12.75 L 1.3125 -12.796875 L 1.3125 -14.59375 L 4.546875 -14.59375 Z M 4.546875 0 "/></g></g></g><g fill="#ff1616" fill-opacity="1"><g transform="translate(99.262751, 31.584488)"><g><path d="M 0.765625 -3.703125 L 2.796875 -3.9375 C 2.859375 -3.28125 3.144531 -2.726562 3.65625 -2.28125 C 4.175781 -1.84375 4.867188 -1.625 5.734375 -1.625 C 6.609375 -1.625 7.300781 -1.832031 7.8125 -2.25 C 8.332031 -2.664062 8.59375 -3.175781 8.59375 -3.78125 C 8.59375 -4.382812 8.457031 -4.890625 8.1875 -5.296875 C 7.914062 -5.703125 7.554688 -6.03125 7.109375 -6.28125 C 6.660156 -6.53125 6.171875 -6.757812 5.640625 -6.96875 C 5.117188 -7.175781 4.59375 -7.394531 4.0625 -7.625 C 3.53125 -7.851562 3.046875 -8.101562 2.609375 -8.375 C 1.617188 -9.019531 1.125 -9.957031 1.125 -11.1875 C 1.125 -12.164062 1.53125 -13.007812 2.34375 -13.71875 C 3.15625 -14.4375 4.320312 -14.796875 5.84375 -14.796875 C 6.988281 -14.796875 8 -14.585938 8.875 -14.171875 L 8.796875 -13.875 C 8.722656 -13.695312 8.632812 -13.453125 8.53125 -13.140625 C 8.425781 -12.835938 8.34375 -12.582031 8.28125 -12.375 C 7.457031 -12.707031 6.625 -12.875 5.78125 -12.875 C 4.9375 -12.875 4.289062 -12.710938 3.84375 -12.390625 C 3.394531 -12.066406 3.171875 -11.648438 3.171875 -11.140625 C 3.171875 -10.628906 3.441406 -10.195312 3.984375 -9.84375 C 4.523438 -9.488281 5.160156 -9.171875 5.890625 -8.890625 C 6.617188 -8.609375 7.34375 -8.289062 8.0625 -7.9375 C 8.789062 -7.582031 9.40625 -7.070312 9.90625 -6.40625 C 10.414062 -5.738281 10.671875 -4.941406 10.671875 -4.015625 C 10.671875 -2.765625 10.257812 -1.742188 9.4375 -0.953125 C 8.625 -0.160156 7.414062 0.234375 5.8125 0.234375 C 4.21875 0.234375 2.984375 -0.164062 2.109375 -0.96875 C 1.242188 -1.769531 0.796875 -2.679688 0.765625 -3.703125 Z M 0.765625 -3.703125 "/></g></g></g><g fill="#ff1616" fill-opacity="1"><g transform="translate(111.372772, 31.584488)"><g><path d="M 0.765625 -3.703125 L 2.796875 -3.9375 C 2.859375 -3.28125 3.144531 -2.726562 3.65625 -2.28125 C 4.175781 -1.84375 4.867188 -1.625 5.734375 -1.625 C 6.609375 -1.625 7.300781 -1.832031 7.8125 -2.25 C 8.332031 -2.664062 8.59375 -3.175781 8.59375 -3.78125 C 8.59375 -4.382812 8.457031 -4.890625 8.1875 -5.296875 C 7.914062 -5.703125 7.554688 -6.03125 7.109375 -6.28125 C 6.660156 -6.53125 6.171875 -6.757812 5.640625 -6.96875 C 5.117188 -7.175781 4.59375 -7.394531 4.0625 -7.625 C 3.53125 -7.851562 3.046875 -8.101562 2.609375 -8.375 C 1.617188 -9.019531 1.125 -9.957031 1.125 -11.1875 C 1.125 -12.164062 1.53125 -13.007812 2.34375 -13.71875 C 3.15625 -14.4375 4.320312 -14.796875 5.84375 -14.796875 C 6.988281 -14.796875 8 -14.585938 8.875 -14.171875 L 8.796875 -13.875 C 8.722656 -13.695312 8.632812 -13.453125 8.53125 -13.140625 C 8.425781 -12.835938 8.34375 -12.582031 8.28125 -12.375 C 7.457031 -12.707031 6.625 -12.875 5.78125 -12.875 C 4.9375 -12.875 4.289062 -12.710938 3.84375 -12.390625 C 3.394531 -12.066406 3.171875 -11.648438 3.171875 -11.140625 C 3.171875 -10.628906 3.441406 -10.195312 3.984375 -9.84375 C 4.523438 -9.488281 5.160156 -9.171875 5.890625 -8.890625 C 6.617188 -8.609375 7.34375 -8.289062 8.0625 -7.9375 C 8.789062 -7.582031 9.40625 -7.070312 9.90625 -6.40625 C 10.414062 -5.738281 10.671875 -4.941406 10.671875 -4.015625 C 10.671875 -2.765625 10.257812 -1.742188 9.4375 -0.953125 C 8.625 -0.160156 7.414062 0.234375 5.8125 0.234375 C 4.21875 0.234375 2.984375 -0.164062 2.109375 -0.96875 C 1.242188 -1.769531 0.796875 -2.679688 0.765625 -3.703125 Z M 0.765625 -3.703125 "/></g></g></g></svg>